<?xml version="1.0" encoding="UTF-8"?> <svg xmlns="http://www.w3.org/2000/svg" id="Ebene_1" data-name="Ebene 1" viewBox="0 0 769.85 412.79"><g><path d="M117.23,161.61c-.1.21-1.33.72-3.59.72-1.85,0-2.56-.1-2.66-.51-13.94-37.21-22.55-58.74-25.01-63.15-.92-1.95-3.89-3.28-7.38-2.97-2.15.21-3.18-1.13-3.18-2.36,0-1.13.82-2.15,2.36-2.05,6.97.62,17.63.31,24.6.1,1.85,0,2.56,1.03,2.56,2.15s-.82,2.26-1.95,2.15c-4.2-.51-5.95,1.03-5.64,3.38.31,3.28,9.33,27.78,17.22,46.74.72,1.33,1.95,1.44,2.46.1,5.64-13.33,16.1-40.7,17.63-46.44.92-3.49-2.25-4.31-7.89-3.79-1.95.21-3.07-1.23-3.07-2.46,0-1.03.82-2.05,2.66-1.95,11.99.62,10.05.51,22.35,0,1.74-.1,2.56,1.03,2.56,2.25,0,1.13-.72,2.26-2.05,2.15-4.82-.41-6.15,1.23-7.38,3.49-4.3,8.3-13.53,33.01-24.6,62.43Z"></path><path d="M184.58,156.38c3.18,0,7.79-.21,10.25-.72,5.54-1.23,8.2-6.36,9.43-10.66.51-1.95,1.64-2.67,2.77-2.67,1.54,0,3.07,1.33,2.66,2.97-1.33,4.72-2.46,10.35-2.87,14.04-.1.92-.72,1.95-3.07,1.95-13.33,0-11.79-.51-32.7-.51-3.59,0-8.61.51-10.66.51-1.85.21-2.77-1.03-2.77-2.36s1.03-2.77,2.56-2.56c6.56,1.13,6.87-3.08,6.97-5.13.92-21.63.61-50.85,0-53.51-.51-1.95-3.28-2.25-6.56-1.74-1.64.31-2.46-1.03-2.46-2.36,0-1.23.72-2.46,2.46-2.36,8.82.62,31.16.72,42.03.1,4.1-.2,5.23,1.13,5.13,2.77-.1,2.36-.82,8.51-1.03,9.94-.2,1.74-1.54,2.56-2.66,2.56s-2.05-.72-2.05-1.85c.31-7.48-3.69-9.02-20.81-9.02-4.31,0-4.61,2.77-4.82,5.23-.21,2.66-.31,16.5-.1,19.68.1,1.54.61,2.25,1.85,2.25,1.85.1,12.1,0,13.94-.1,2.77-.31,4-2.05,4-6.15,0-1.23,1.33-2.05,2.56-2.05s2.36.72,2.36,2.46c-.61,8.92-.41,9.12-.1,15.27.1,2.36-1.23,3.38-2.56,3.38s-2.66-1.03-2.56-2.56c.21-3.59-.82-4.92-3.28-5.43-1.95-.41-12.92-.31-14.56-.1-1.44.21-1.54,1.33-1.54,2.25-.1,4.2,0,16.3.31,21.22.1,3.79,1.23,5.23,7.89,5.23Z"></path><path d="M236.24,107.17c-.2,7.79.41,36.7.72,41.31.41,5.02,1.13,8.82,8.1,7.89,2.46-.31,3.59,1.23,3.59,2.66,0,1.23-.92,2.46-2.36,2.25-4.2-.31-11.38-.82-22.55,0-1.54.21-2.36-1.13-2.36-2.46s.82-2.56,2.56-2.46c6.76.51,6.66-3.38,6.97-7.89.51-8.92.1-32.29,0-40.7-.1-9.02-1.13-11.79-5.74-11.38-1.74.1-2.56-1.13-2.56-2.36,0-1.33,1.03-2.77,3.07-2.56,0,0,8.3.2,10.76,0,2.36-.21,4.1,2.46,6.66,6.56,8.71,13.02,19.17,28.29,32.09,44.49.72.72,2.15.72,2.26-.1.41-6.46.41-33.52-.21-40.29-.41-4.41-2.25-6.66-8.3-6.46-1.54,0-2.25-1.03-2.25-2.15,0-1.23.82-2.46,2.66-2.25,9.84.82,12.51.31,18.76,0,2.46-.1,3.48,1.03,3.48,2.25,0,1.03-.92,2.15-2.36,2.15-4.72,0-5.95,3.28-6.05,6.15-.61,16.92-.61,38.65.1,59.25,0,.82-1.64,1.33-3.38,1.33-1.44,0-2.87-.31-3.48-1.13-13.94-19.99-28.19-40.29-38.85-54.53-.31-.31-1.33-.51-1.33.41Z"></path><path d="M329.72,156.38c3.18,0,7.79-.21,10.25-.72,5.54-1.23,8.2-6.36,9.43-10.66.51-1.95,1.64-2.67,2.77-2.67,1.54,0,3.07,1.33,2.66,2.97-1.33,4.72-2.46,10.35-2.87,14.04-.1.92-.72,1.95-3.07,1.95-13.33,0-11.79-.51-32.7-.51-3.59,0-8.61.51-10.66.51-1.85.21-2.77-1.03-2.77-2.36s1.03-2.77,2.56-2.56c6.56,1.13,6.87-3.08,6.97-5.13.92-21.63.61-50.85,0-53.51-.51-1.95-3.28-2.25-6.56-1.74-1.64.31-2.46-1.03-2.46-2.36,0-1.23.72-2.46,2.46-2.36,8.82.62,31.16.72,42.03.1,4.1-.2,5.23,1.13,5.13,2.77-.1,2.36-.82,8.51-1.03,9.94-.2,1.74-1.54,2.56-2.66,2.56s-2.05-.72-2.05-1.85c.31-7.48-3.69-9.02-20.81-9.02-4.31,0-4.61,2.77-4.82,5.23-.21,2.66-.31,16.5-.1,19.68.1,1.54.61,2.25,1.85,2.25,1.85.1,12.1,0,13.94-.1,2.77-.31,4-2.05,4-6.15,0-1.23,1.33-2.05,2.56-2.05s2.36.72,2.36,2.46c-.61,8.92-.41,9.12-.1,15.27.1,2.36-1.23,3.38-2.56,3.38s-2.66-1.03-2.56-2.56c.21-3.59-.82-4.92-3.28-5.43-1.95-.41-12.92-.31-14.56-.1-1.44.21-1.54,1.33-1.54,2.25-.1,4.2,0,16.3.31,21.22.1,3.79,1.23,5.23,7.89,5.23Z"></path><path d="M369.09,161.1c-1.95.2-2.77-.92-2.77-2.15,0-1.33.92-2.66,2.56-2.46,3.49.41,6.15-.2,6.66-3.9,1.33-8.92,1.23-46.23.21-53.82-.51-3.69-4-2.87-7.18-3.08-.92,0-1.54-.92-1.54-1.95,0-1.13.82-2.25,2.77-2.25h22.86c24.19,0,42.23,11.58,42.23,33.42,0,25.32-17.32,35.88-41.21,36.19h-24.6ZM424.34,127.27c0-15.27-7.38-31.16-31.88-31.16-5.13,0-6.87.62-7.18,4-.62,5.64-.2,38.54.1,47.16.31,8.2,6.46,9.23,13.43,9.23,14.97,0,25.53-10.66,25.53-29.22Z"></path><path d="M456.73,154.02c.92-5.74.92-53.82.2-56.18-.61-1.95-3.59-2.87-6.76-2.25-1.54.21-2.25-.82-2.25-1.95,0-1.23.82-2.56,2.66-2.36,9.84.72,15.17.41,21.43,0,2.46-.1,3.48,1.03,3.48,2.15,0,1.23-1.13,2.46-2.46,2.25-3.89-.41-5.95-.1-6.56,2.25-.72,2.46-.61,48.59.41,55.97.41,2.66,2.66,2.77,7.38,2.46,1.85-.1,2.77,1.13,2.77,2.36,0,1.33-1.02,2.67-2.77,2.56-7.79-.41-15.27-.72-24.4,0-2.05.21-2.97-1.33-2.97-2.66,0-1.23.72-2.36,2.25-2.25,2.66.31,6.97,1.13,7.59-2.36Z"></path><path d="M540.07,153.82c1.44-1.13,1.85-1.95,2.05-6.25.1-2.05-.1-5.54-.21-8.82,0-1.13-.41-2.05-1.85-2.15-1.95-.1-5.84,0-7.69.1-1.54.1-2.36-1.23-2.36-2.56s.82-2.56,2.66-2.46c7.07.62,17.12.41,21.43.1,2.36-.1,3.18.92,3.18,2.05,0,1.23-1.03,2.56-2.26,2.46-3.89-.51-4.1.92-4.2,2.46-.31,4.41,0,14.15,0,14.66,0,1.54-.51,2.56-1.95,3.07-7.38,3.49-14.35,5.64-23.58,5.64-22.86,0-36.7-14.45-36.7-36.5,0-20.4,14.15-35.16,38.75-35.16,11.58,0,22.14,4.31,22.65,7.48.31,2.97.51,5.23.72,9.33.1,1.64-2.05,2.46-3.59,2.46-.82,0-1.54-.21-1.64-.72-1.23-5.64-8.3-14.35-21.32-14.35-15.99,0-25.01,13.84-25.01,29.22,0,17.63,11.07,33.11,28.7,33.11,5.23,0,9.53-1.13,12.2-3.18Z"></path><path d="M594.39,156.38c3.18,0,7.79-.21,10.25-.72,5.54-1.23,8.2-6.36,9.43-10.66.51-1.95,1.64-2.67,2.77-2.67,1.54,0,3.08,1.33,2.67,2.97-1.33,4.72-2.46,10.35-2.87,14.04-.1.92-.72,1.95-3.08,1.95-13.33,0-11.79-.51-32.7-.51-3.59,0-8.61.51-10.66.51-1.85.21-2.77-1.03-2.77-2.36s1.03-2.77,2.56-2.56c6.56,1.13,6.87-3.08,6.97-5.13.92-21.63.62-50.85,0-53.51-.51-1.95-3.28-2.25-6.56-1.74-1.64.31-2.46-1.03-2.46-2.36,0-1.23.72-2.46,2.46-2.36,8.82.62,31.16.72,42.03.1,4.1-.2,5.23,1.13,5.13,2.77-.1,2.36-.82,8.51-1.02,9.94-.21,1.74-1.54,2.56-2.67,2.56s-2.05-.72-2.05-1.85c.31-7.48-3.69-9.02-20.81-9.02-4.31,0-4.61,2.77-4.82,5.23-.2,2.66-.31,16.5-.1,19.68.1,1.54.62,2.25,1.85,2.25,1.85.1,12.1,0,13.94-.1,2.77-.31,4-2.05,4-6.15,0-1.23,1.33-2.05,2.56-2.05s2.36.72,2.36,2.46c-.62,8.92-.41,9.12-.1,15.27.1,2.36-1.23,3.38-2.56,3.38s-2.67-1.03-2.56-2.56c.2-3.59-.82-4.92-3.28-5.43-1.95-.41-12.92-.31-14.56-.1-1.44.21-1.54,1.33-1.54,2.25-.1,4.2,0,16.3.31,21.22.1,3.79,1.23,5.23,7.89,5.23Z"></path><path d="M693.21,157.92c.82,0,1.23,1.03,1.23,1.95,0,.72-.21,1.33-.72,1.64-.92.41-5.13,1.13-8,1.13-10.05,0-20.09-19.07-26.24-27.06-1.33-1.85-2.77-3.18-4.1-3.49-1.23-.31-3.08-.41-4-.31-.82.1-1.74.1-1.85,2.56-.1,2.87.41,15.58.61,17.53.62,5.33,3.59,4.61,7.69,4.31,1.64,0,2.56,1.23,2.56,2.56s-.92,2.67-2.66,2.56c-7.48-.31-15.48-.61-24.19,0-1.85.1-2.77-1.03-2.77-2.36,0-1.44,1.03-2.87,2.97-2.66,2.25.31,6.36.51,6.66-4.31.82-12.71.51-45.92,0-52.38-.31-3.28-1.64-3.59-5.54-2.77-1.64.41-2.56-.72-2.56-1.95s.82-2.56,2.46-2.66c8.71-.62,17.12-.92,20.3-.92,16.71,0,29.22,5.33,29.22,18.35s-12.51,18.55-14.66,19.58c-1.95.82-2.26,1.95-.82,3.79,5.54,6.66,15.99,24.91,24.4,24.91ZM656.2,127.16c10.45,0,17.73-7.18,17.73-16.2,0-11.28-7.58-15.58-18.45-15.58-6.36,0-6.36,2.67-6.36,3.69-.1,3.38.21,18.96.21,22.76.1,3.59.31,5.33,2.77,5.33h4.1Z"></path><path d="M253.67,250.24c.41-1.23,1.44-1.85,2.56-1.85,1.33,0,2.97.82,2.56,3.18-.92,5.74-2.25,11.99-2.87,14.04-.41,1.44-1.13,1.95-2.56,1.85-7.79,0-33.01-1.13-43.87.1-2.05.31-2.97-1.13-2.97-2.56,0-1.23.72-2.46,2.25-2.36,2.77.2,6.66.2,7.18-3.28.92-5.74.82-52.18.2-54.64-.61-1.95-2.77-3.59-7.07-2.77-1.54.31-2.25-.82-2.25-2.05s.82-2.56,2.66-2.36c9.74.72,17.12.31,23.37,0,2.46-.1,3.38,1.03,3.38,2.15,0,1.23-1.13,2.46-2.56,2.25-4.3-.41-7.48.62-7.89,2.97-.92,2.36-1.54,47.77.31,54.95.82,3.59,14.35,3.28,19.17,2.25,4.72-1.13,8-10.05,8.41-11.89Z"></path><path d="M304,196.73c21.42,0,35.57,14.35,35.57,35.16s-15.17,36.5-35.57,36.5c-21.63,0-35.47-15.58-35.47-36.5,0-19.68,14.97-35.16,35.47-35.16ZM305.74,263.36c14.15,0,22.96-11.07,22.96-29.93s-11.99-31.88-26.34-31.88c-13.53,0-22.96,8.71-22.96,28.19s12.1,33.62,26.34,33.62Z"></path><path d="M354.43,267.36c-1.95.2-2.77-.92-2.77-2.15,0-1.33.92-2.66,2.56-2.46,3.48.41,6.15-.2,6.66-3.9,1.33-8.92,1.23-46.23.2-53.82-.51-3.69-4-2.87-7.17-3.08-.92,0-1.54-.92-1.54-1.95,0-1.13.82-2.25,2.77-2.25h22.86c24.19,0,42.23,11.58,42.23,33.42,0,25.32-17.33,35.88-41.21,36.19h-24.6ZM409.68,233.53c0-15.27-7.38-31.16-31.88-31.16-5.13,0-6.87.62-7.17,4-.62,5.64-.21,38.54.1,47.16.31,8.2,6.46,9.23,13.43,9.23,14.97,0,25.53-10.66,25.53-29.22Z"></path><path d="M485.12,260.08c1.44-1.13,1.85-1.95,2.05-6.25.1-2.05-.1-5.54-.21-8.82,0-1.13-.41-2.05-1.85-2.15-1.95-.1-5.84,0-7.69.1-1.54.1-2.36-1.23-2.36-2.56s.82-2.56,2.66-2.46c7.07.62,17.12.41,21.43.1,2.36-.1,3.18.92,3.18,2.05,0,1.23-1.03,2.56-2.26,2.46-3.89-.51-4.1.92-4.2,2.46-.31,4.41,0,14.15,0,14.66,0,1.54-.51,2.56-1.95,3.07-7.38,3.49-14.35,5.64-23.58,5.64-22.86,0-36.7-14.45-36.7-36.5,0-20.4,14.15-35.16,38.75-35.16,11.58,0,22.14,4.31,22.65,7.48.31,2.97.51,5.23.72,9.33.1,1.64-2.05,2.46-3.59,2.46-.82,0-1.54-.21-1.64-.72-1.23-5.64-8.3-14.35-21.32-14.35-15.99,0-25.01,13.84-25.01,29.22,0,17.63,11.07,33.11,28.7,33.11,5.23,0,9.53-1.13,12.2-3.18Z"></path><path d="M539.45,262.65c3.18,0,7.79-.21,10.25-.72,5.54-1.23,8.2-6.36,9.43-10.66.51-1.95,1.64-2.67,2.77-2.67,1.54,0,3.07,1.33,2.66,2.97-1.33,4.72-2.46,10.35-2.87,14.04-.1.92-.72,1.95-3.07,1.95-13.33,0-11.79-.51-32.7-.51-3.59,0-8.61.51-10.66.51-1.85.21-2.77-1.03-2.77-2.36s1.03-2.77,2.56-2.56c6.56,1.13,6.87-3.08,6.97-5.13.92-21.63.61-50.85,0-53.51-.51-1.95-3.28-2.25-6.56-1.74-1.64.31-2.46-1.03-2.46-2.36,0-1.23.72-2.46,2.46-2.36,8.82.62,31.16.72,42.03.1,4.1-.2,5.23,1.13,5.13,2.77-.1,2.36-.82,8.51-1.03,9.94-.2,1.74-1.54,2.56-2.66,2.56s-2.05-.72-2.05-1.85c.31-7.48-3.69-9.02-20.81-9.02-4.31,0-4.61,2.77-4.82,5.23-.21,2.66-.31,16.5-.1,19.68.1,1.54.61,2.25,1.85,2.25,1.85.1,12.1,0,13.94-.1,2.77-.31,4-2.05,4-6.15,0-1.23,1.33-2.05,2.56-2.05s2.36.72,2.36,2.46c-.61,8.92-.41,9.12-.1,15.27.1,2.36-1.23,3.38-2.56,3.38s-2.66-1.03-2.56-2.56c.21-3.59-.82-4.92-3.28-5.43-1.95-.41-12.92-.31-14.56-.1-1.44.21-1.54,1.33-1.54,2.25-.1,4.2,0,16.3.31,21.22.1,3.79,1.23,5.23,7.89,5.23Z"></path></g><g><path d="M164.33,321.85l4.99-17.31h3.04l3.19,11.02h.02v.08l1.81,6.22v.25h-2.31l-1.23-4.42h-6.02l-1.23,4.42h-2.26v-.25ZM173.24,315.55l-2.41-8.63-2.41,8.63h4.82Z"></path><path d="M183.14,304.54h5.42c3.56,0,5.62,2.56,5.62,5.62s-2.06,5.65-5.62,5.65h-3.16v6.3h-2.26v-17.56ZM188.54,313.72c2.21,0,3.39-1.51,3.39-3.56s-1.18-3.56-3.39-3.56h-3.14v7.13h3.14Z"></path><path d="M200.95,304.54h5.42c3.56,0,5.62,2.56,5.62,5.62s-2.06,5.65-5.62,5.65h-3.16v6.3h-2.26v-17.56ZM206.35,313.72c2.21,0,3.39-1.51,3.39-3.56s-1.18-3.56-3.39-3.56h-3.14v7.13h3.14Z"></path><path d="M217.76,321.85l4.99-17.31h3.04l3.19,11.02h.03v.08l1.81,6.22v.25h-2.31l-1.23-4.42h-6.02l-1.23,4.42h-2.26v-.25ZM226.67,315.55l-2.41-8.63-2.41,8.63h4.82Z"></path><path d="M236.5,304.54h5.45c3.59,0,5.57,2.28,5.57,5.27,0,2.58-1.3,4.42-3.61,5.12l3.79,6.93v.25h-2.38l-3.64-6.88h-2.91v6.88h-2.26v-17.56ZM241.82,313.12c2.21,0,3.44-1.18,3.44-3.31s-1.23-3.19-3.44-3.19h-3.06v6.5h3.06Z"></path><path d="M258.77,306.67h-4.79v-2.13h11.84v2.13h-4.79v15.43h-2.26v-15.43Z"></path><path d="M272.57,304.54h10.29v2.08h-8.03v5.39h7.25v2.06h-7.25v5.95h8.03v2.08h-10.29v-17.56Z"></path><path d="M289.7,304.54h2.81l3.01,13.58,3.01-13.58h2.81v17.56h-2.13v-11.47l-2.56,11.47h-2.26l-2.56-11.47v11.47h-2.13v-17.56Z"></path><path d="M308.19,304.54h10.29v2.08h-8.03v5.39h7.25v2.06h-7.25v5.95h8.03v2.08h-10.29v-17.56Z"></path><path d="M325.37,304.54h2.43l6.93,13.4v-13.4h2.18v17.56h-2.43l-6.92-13.35v13.35h-2.18v-17.56Z"></path><path d="M347.82,306.67h-4.79v-2.13h11.84v2.13h-4.79v15.43h-2.26v-15.43Z"></path><path d="M361.04,316.83h2.21c0,1.86,1.2,3.44,3.54,3.44s3.41-1.38,3.41-2.94-.95-2.36-2.66-2.91l-1.76-.58c-2.71-.9-4.17-2.46-4.17-4.79,0-2.58,1.88-4.74,5.19-4.74s5.35,2.23,5.37,5.22h-2.23c0-1.78-1.05-3.14-3.14-3.14-1.68,0-2.94.98-2.94,2.66,0,1.31.95,2.16,2.51,2.69l1.86.63c3.01,1,4.24,2.56,4.24,4.97,0,2.63-1.83,4.99-5.7,4.99s-5.7-2.69-5.75-5.5Z"></path><path d="M396.73,319.97l8.51-13.3h-8.28v-2.13h10.92v2.13l-8.48,13.3h8.63v2.13h-11.29v-2.13Z"></path><path d="M414.42,316.16v-11.62h2.26v11.82c0,2.51,1.2,3.84,3.54,3.84s3.54-1.33,3.54-3.84v-11.82h2.26v11.62c0,3.82-2.06,6.17-5.8,6.17s-5.8-2.36-5.8-6.17Z"></path><path d="M432.18,304.54h2.81l3.01,13.58,3.01-13.58h2.81v17.56h-2.13v-11.47l-2.56,11.47h-2.26l-2.56-11.47v11.47h-2.13v-17.56Z"></path><path d="M468.02,304.54h5.6c2.96,0,5.07,1.81,5.07,4.62,0,1.91-.95,3.04-2.08,3.66,1.36.55,2.61,1.78,2.61,4.22,0,3.21-2.16,5.07-5.6,5.07h-5.6v-17.56ZM473.19,312.01c1.76,0,3.26-.85,3.26-2.86,0-1.61-1.13-2.56-3.14-2.56h-3.04v5.42h2.91ZM473.37,320.02c2.08,0,3.59-.98,3.59-2.98s-1.35-3.01-3.59-3.01h-3.09v6h3.09Z"></path><path d="M486.36,304.54h2.26v15.43h7.88v2.13h-10.14v-17.56Z"></path><path d="M504.09,304.54h10.29v2.08h-8.03v5.39h7.25v2.06h-7.25v5.95h8.03v2.08h-10.29v-17.56Z"></path><path d="M521.5,319.97h4.42v-13.3h-4.42v-2.13h11.09v2.13h-4.42v13.3h4.42v2.13h-11.09v-2.13Z"></path><path d="M539.26,304.54h5.6c2.96,0,5.07,1.81,5.07,4.62,0,1.91-.95,3.04-2.08,3.66,1.36.55,2.61,1.78,2.61,4.22,0,3.21-2.16,5.07-5.6,5.07h-5.6v-17.56ZM544.43,312.01c1.76,0,3.26-.85,3.26-2.86,0-1.61-1.13-2.56-3.14-2.56h-3.04v5.42h2.91ZM544.61,320.02c2.08,0,3.59-.98,3.59-2.98s-1.35-3.01-3.59-3.01h-3.09v6h3.09Z"></path><path d="M557.53,304.54h10.29v2.08h-8.03v5.39h7.25v2.06h-7.25v5.95h8.03v2.08h-10.29v-17.56Z"></path><path d="M574.71,304.54h2.43l6.93,13.4v-13.4h2.18v17.56h-2.43l-6.92-13.35v13.35h-2.18v-17.56Z"></path></g></svg> 